# Blender 4.0.2
# www.blender.org
o pogo
v -0.023049 -0.489444 0.034232
v -0.023049 -0.191176 0.034232
v -0.023049 -0.489444 -0.034243
v -0.023049 -0.191176 -0.034243
v 0.023049 -0.489444 0.034232
v 0.023049 -0.191176 0.034232
v 0.023049 -0.489444 -0.034243
v 0.023049 -0.191176 -0.034243
v -0.023049 -0.156317 0.034232
v -0.023049 -0.156317 -0.034243
v 0.014203 -0.156317 -0.034243
v 0.014203 -0.156317 0.034232
v 0.000000 -0.489444 -0.034243
v 0.000000 -0.191176 -0.034243
v 0.000000 -0.489444 0.034232
v 0.000000 -0.191176 0.034232
v 0.000000 -0.156317 -0.034243
v 0.000000 -0.156317 0.034232
v 0.139271 -0.191176 -0.034243
v 0.139271 -0.191176 0.034232
v 0.149738 -0.155657 -0.034243
v 0.149738 -0.155657 0.034232
v 0.104404 -0.155855 0.034232
v 0.104404 -0.155855 -0.034243
v 0.104404 -0.191176 -0.034243
v 0.104404 -0.191176 0.034232
v 0.145693 -0.140761 -0.033530
v 0.145693 -0.140761 0.034945
v 0.125769 -0.135123 0.034232
v 0.125769 -0.135123 -0.034243
v 0.000000 0.180247 -0.034243
v 0.014203 0.180247 -0.034243
v 0.014203 0.180247 0.034232
v 0.000000 0.180247 0.034232
v 0.027733 -0.156247 -0.034243
v 0.035252 -0.191176 0.034232
v 0.027733 -0.156247 0.034232
v 0.035252 -0.191176 -0.034243
v 0.050734 -0.156130 0.034232
v 0.055998 -0.191176 -0.034243
v 0.050734 -0.156130 -0.034243
v 0.055998 -0.191176 0.034232
v 0.049021 0.181156 -0.034243
v 0.026020 0.181180 -0.034243
v 0.026020 0.181180 0.034232
v 0.049021 0.181156 0.034232
v 0.000000 0.208809 -0.034243
v 0.020126 0.209275 -0.034243
v 0.020126 0.209275 0.034232
v 0.000000 0.208809 0.034232
v 0.049036 0.209717 -0.034243
v 0.049036 0.209717 0.034232
v 0.000000 0.274973 -0.041435
v 0.018332 0.275538 -0.041435
v 0.018332 0.275538 0.041424
v 0.000000 0.274973 0.041424
v 0.053314 0.276073 0.041424
v 0.053314 0.276073 -0.041435
v 0.000000 0.357757 -0.018635
v 0.008507 0.358011 -0.018635
v 0.008507 0.358011 0.018625
v 0.000000 0.357757 0.018625
v 0.024238 0.358251 0.018625
v 0.024238 0.358251 -0.018635
v 0.000000 0.475295 -0.018635
v 0.006245 0.475549 -0.018635
v 0.006245 0.475549 0.018625
v 0.000000 0.475295 0.018625
v 0.021976 0.475790 0.018625
v 0.021976 0.475790 -0.018635
v 0.023107 0.417021 0.018625
v 0.007376 0.416780 0.018625
v 0.000000 0.416526 0.018625
v 0.000000 0.416526 -0.018635
v 0.007376 0.416780 -0.018635
v 0.023107 0.417021 -0.018635
v 0.022542 0.446405 0.018625
v 0.000000 0.445911 0.018625
v 0.006810 0.446165 -0.018635
v 0.006810 0.446165 0.018625
v 0.000000 0.445911 -0.018635
v 0.022542 0.446405 -0.018635
v 0.181483 0.448053 0.018625
v 0.180918 0.477437 0.018625
v 0.180918 0.477437 -0.018635
v 0.181483 0.448053 -0.018635
v 0.023049 -0.414877 -0.034243
v 0.023049 -0.414877 0.034232
v 0.000000 -0.414877 0.034232
v 0.000000 -0.414877 -0.034243
v 0.023049 -0.489444 0.034232
v 0.023049 -0.191176 0.034232
v 0.023049 -0.489444 -0.034243
v 0.023049 -0.191176 -0.034243
v -0.023049 -0.489444 0.034232
v -0.023049 -0.191176 0.034232
v -0.023049 -0.489444 -0.034243
v -0.023049 -0.191176 -0.034243
v 0.023049 -0.156317 0.034232
v 0.023049 -0.156317 -0.034243
v -0.014203 -0.156317 -0.034243
v -0.014203 -0.156317 0.034232
v -0.139271 -0.191176 -0.034243
v -0.139271 -0.191176 0.034232
v -0.149738 -0.155657 -0.034243
v -0.149738 -0.155657 0.034232
v -0.104404 -0.155855 0.034232
v -0.104404 -0.155855 -0.034243
v -0.104404 -0.191176 -0.034243
v -0.104404 -0.191176 0.034232
v -0.145693 -0.140761 -0.033530
v -0.145693 -0.140761 0.034945
v -0.125769 -0.135123 0.034232
v -0.125769 -0.135123 -0.034243
v -0.014203 0.180247 -0.034243
v -0.014203 0.180247 0.034232
v -0.027733 -0.156247 -0.034243
v -0.035252 -0.191176 0.034232
v -0.027733 -0.156247 0.034232
v -0.035252 -0.191176 -0.034243
v -0.050734 -0.156130 0.034232
v -0.055998 -0.191176 -0.034243
v -0.050734 -0.156130 -0.034243
v -0.055998 -0.191176 0.034232
v -0.049021 0.181156 -0.034243
v -0.026020 0.181180 -0.034243
v -0.026020 0.181180 0.034232
v -0.049021 0.181156 0.034232
v -0.020126 0.209275 -0.034243
v -0.020126 0.209275 0.034232
v -0.049036 0.209717 -0.034243
v -0.049036 0.209717 0.034232
v -0.018332 0.275538 -0.041435
v -0.018332 0.275538 0.041424
v -0.053314 0.276073 0.041424
v -0.053314 0.276073 -0.041435
v -0.008507 0.358011 -0.018635
v -0.008507 0.358011 0.018625
v -0.024238 0.358251 0.018625
v -0.024238 0.358251 -0.018635
v -0.006245 0.475549 -0.018635
v -0.006245 0.475549 0.018625
v -0.021976 0.475790 0.018625
v -0.021976 0.475790 -0.018635
v -0.023107 0.417021 0.018625
v -0.007376 0.416780 0.018625
v -0.007376 0.416780 -0.018635
v -0.023107 0.417021 -0.018635
v -0.022542 0.446405 0.018625
v -0.006810 0.446165 -0.018635
v -0.006810 0.446165 0.018625
v -0.022542 0.446405 -0.018635
v -0.181483 0.448053 0.018625
v -0.180918 0.477437 0.018625
v -0.180918 0.477437 -0.018635
v -0.181483 0.448053 -0.018635
v -0.023049 -0.414877 -0.034243
v -0.023049 -0.414877 0.034232
vn -1.0000 -0.0000 -0.0000
vn -0.0000 -0.0000 -1.0000
vn -0.0000 -0.0000 1.0000
vn -0.0000 -1.0000 -0.0000
vn -0.0000 1.0000 -0.0000
vn 1.0000 -0.0000 -0.0000
vn 0.9592 -0.2827 -0.0000
vn -0.0051 1.0000 -0.0000
vn 0.2723 0.9622 -0.0000
vn -0.6964 0.7177 -0.0000
vn 0.0532 0.0621 -0.9966
vn 0.9650 0.2621 -0.0000
vn 1.0000 0.0051 -0.0000
vn -1.0000 -0.0051 -0.0000
vn 0.9979 -0.0643 -0.0000
vn 0.9798 -0.1999 -0.0000
vn 1.0000 -0.0005 -0.0000
vn -0.9787 -0.2053 -0.0000
vn -0.0041 0.2660 0.9640
vn -0.0082 0.2655 -0.9641
vn 0.0016 -0.1079 0.9942
vn 0.0016 -0.1079 -0.9942
vn 0.0025 -0.1081 0.9941
vn 0.0033 -0.1078 -0.9942
vn -0.0041 0.2660 -0.9640
vn 0.9427 0.3336 -0.0000
vn -0.0079 0.2655 0.9641
vn -0.0406 0.9992 -0.0000
vn -0.0153 0.9999 -0.0000
vn 0.0104 -0.9999 -0.0000
vn 0.9998 0.0192 -0.0000
vn -0.0104 0.9999 -0.0000
vn -0.9592 -0.2827 -0.0000
vn 0.0051 1.0000 -0.0000
vn -0.2723 0.9622 -0.0000
vn 0.6964 0.7177 -0.0000
vn -0.9650 0.2621 -0.0000
vn -1.0000 0.0051 -0.0000
vn 1.0000 -0.0051 -0.0000
vn -0.9979 -0.0643 -0.0000
vn -0.9798 -0.1999 -0.0000
vn -1.0000 -0.0005 -0.0000
vn 0.9787 -0.2053 -0.0000
vn 0.0041 0.2660 0.9640
vn 0.0082 0.2655 -0.9641
vn -0.0016 -0.1079 0.9942
vn -0.0016 -0.1079 -0.9942
vn -0.0025 -0.1081 0.9941
vn -0.0025 -0.1081 -0.9941
vn 0.0041 0.2660 -0.9640
vn -0.9427 0.3336 -0.0000
vn 0.0082 0.2655 0.9641
vn 0.0406 0.9992 -0.0000
vn 0.0153 0.9999 -0.0000
vn -0.0104 -0.9999 -0.0000
vn -0.9998 0.0192 -0.0000
vn 0.0104 0.9999 -0.0000
vn -0.0532 -0.0621 0.9966
vn -0.0079 0.2655 -0.9641
vn 0.0033 -0.1078 0.9942
vn 0.0025 -0.1081 -0.9941
vn -0.0082 0.2655 0.9641
vn 0.0532 -0.0621 0.9966
vn -0.0532 0.0621 -0.9966
vn 0.0079 0.2655 -0.9641
vn -0.0033 -0.1078 0.9942
vn -0.0033 -0.1078 -0.9942
vn 0.0079 0.2655 0.9641
vt 0.115028 0.857884
vt 0.111584 0.861328
vt 0.111584 0.857884
vt 0.115028 0.863050
vt 0.112445 0.864771
vt 0.112445 0.863050
vt 0.115028 0.868215
vt 0.115028 0.869937
vt 0.472929 0.267934
vt 0.471207 0.271378
vt 0.471207 0.267934
vt 0.118472 0.864771
vt 0.116750 0.868215
vt 0.116750 0.864771
vt 0.115028 0.861328
vt 0.115028 0.864771
vt 0.469485 0.271378
vt 0.469485 0.267934
vt 0.112445 0.868215
vt 0.473790 0.266212
vt 0.472929 0.266212
vt 0.481562 0.312312
vt 0.424940 0.250653
vt 0.481562 0.250653
vt 0.473790 0.271378
vt 0.472929 0.273100
vt 0.472929 0.271378
vt 0.112445 0.869937
vt 0.118472 0.868215
vt 0.473790 0.267934
vt 0.424940 0.312312
vt 0.473790 0.273100
s 0
f 2/1/1 3/2/1 1/3/1
f 14/4/2 87/5/2 90/6/2
f 12/7/3 34/8/3 18/8/3
f 7/9/4 15/10/4 13/11/4
f 22/7/3 29/7/3 23/7/3
f 10/12/5 18/13/5 17/14/5
f 2/1/1 10/15/1 4/15/1
f 16/8/3 12/7/3 18/8/3
f 17/4/2 32/16/2 11/16/2
f 14/4/2 11/16/2 8/16/2
f 33/7/3 50/8/3 34/8/3
f 11/16/6 33/7/6 12/7/6
f 13/11/4 1/17/4 3/18/4
f 8/16/6 88/19/6 87/5/6
f 18/13/1 31/14/1 17/14/1
f 19/16/7 22/7/7 20/7/7
f 25/16/4 20/7/4 26/7/4
f 23/7/3 20/7/3 22/7/3
f 24/16/2 19/16/2 25/16/2
f 40/16/2 24/16/2 25/16/2
f 42/7/3 23/7/3 39/7/3
f 40/16/4 26/7/4 42/7/4
f 39/7/8 24/16/8 41/16/8
f 29/7/9 27/16/9 30/16/9
f 23/7/10 30/16/10 24/16/10
f 21/16/11 30/16/11 27/16/11
f 22/7/12 27/16/12 28/7/12
f 12/7/8 35/16/8 11/16/8
f 8/16/4 36/7/4 6/7/4
f 6/7/3 37/7/3 12/7/3
f 8/16/2 35/16/2 38/16/2
f 41/16/13 46/7/13 39/7/13
f 38/16/4 42/7/4 36/7/4
f 36/7/3 39/7/3 37/7/3
f 38/16/2 41/16/2 40/16/2
f 44/16/2 51/16/2 43/16/2
f 37/7/3 46/7/3 45/7/3
f 37/7/14 44/16/14 35/16/14
f 35/16/2 43/16/2 41/16/2
f 50/13/1 53/14/1 47/14/1
f 51/16/15 57/7/15 52/7/15
f 32/16/16 49/7/16 33/7/16
f 43/16/17 52/7/17 46/7/17
f 45/7/18 48/16/18 44/16/18
f 34/13/1 47/14/1 31/14/1
f 32/16/2 47/4/2 48/16/2
f 45/7/3 52/7/3 49/7/3
f 55/7/19 63/7/19 61/7/19
f 53/4/20 60/16/20 54/16/20
f 52/7/21 55/7/21 49/7/21
f 51/16/22 54/16/22 58/16/22
f 49/7/23 56/8/23 50/8/23
f 48/16/24 53/4/24 54/16/24
f 78/13/1 65/14/1 81/14/1
f 80/7/3 69/7/3 67/7/3
f 53/14/1 62/13/1 59/14/1
f 54/16/25 64/16/25 58/16/25
f 58/16/26 63/7/26 57/7/26
f 56/8/27 61/7/27 62/8/27
f 65/14/28 67/7/28 66/16/28
f 67/7/29 70/16/29 66/16/29
f 79/16/2 70/16/2 82/16/2
f 82/16/30 83/7/30 77/7/30
f 80/7/3 68/8/3 78/8/3
f 79/16/2 65/4/2 66/16/2
f 60/16/2 74/4/2 75/16/2
f 61/7/3 73/8/3 62/8/3
f 64/16/31 71/7/31 63/7/31
f 60/16/2 76/16/2 64/16/2
f 61/7/3 71/7/3 72/7/3
f 62/13/1 74/14/1 59/14/1
f 75/16/2 81/4/2 79/16/2
f 72/7/3 78/8/3 73/8/3
f 76/16/31 77/7/31 71/7/31
f 75/16/2 82/16/2 76/16/2
f 72/7/3 77/7/3 80/7/3
f 73/13/1 81/14/1 74/14/1
f 86/16/31 84/7/31 83/7/31
f 69/7/32 85/16/32 70/16/32
f 77/7/3 84/7/3 69/7/3
f 82/16/2 85/16/2 86/16/2
f 90/20/2 7/9/2 13/21/2
f 87/22/6 5/23/6 7/24/6
f 88/25/3 15/26/3 5/27/3
f 6/7/3 89/28/3 88/19/3
f 93/2/6 92/1/6 91/3/6
f 157/5/2 14/4/2 90/6/2
f 34/8/3 102/7/3 18/8/3
f 15/10/4 97/9/4 13/11/4
f 113/7/3 106/7/3 107/7/3
f 18/13/5 100/12/5 17/14/5
f 100/15/6 92/1/6 94/15/6
f 16/8/3 102/7/3 96/7/3
f 115/16/2 17/4/2 101/16/2
f 101/16/2 14/4/2 98/16/2
f 50/8/3 116/7/3 34/8/3
f 116/7/1 101/16/1 102/7/1
f 91/17/4 13/11/4 93/18/4
f 158/19/1 98/16/1 157/5/1
f 106/7/33 103/16/33 104/7/33
f 104/7/4 109/16/4 110/7/4
f 107/7/3 104/7/3 110/7/3
f 103/16/2 108/16/2 109/16/2
f 122/16/2 108/16/2 123/16/2
f 107/7/3 124/7/3 121/7/3
f 110/7/4 122/16/4 124/7/4
f 108/16/34 121/7/34 123/16/34
f 111/16/35 113/7/35 114/16/35
f 114/16/36 107/7/36 108/16/36
f 105/16/2 114/16/2 108/16/2
f 106/7/37 111/16/37 105/16/37
f 117/16/34 102/7/34 101/16/34
f 118/7/4 98/16/4 96/7/4
f 119/7/3 96/7/3 102/7/3
f 98/16/2 117/16/2 101/16/2
f 128/7/38 123/16/38 121/7/38
f 124/7/4 120/16/4 118/7/4
f 121/7/3 118/7/3 119/7/3
f 120/16/2 123/16/2 117/16/2
f 131/16/2 126/16/2 125/16/2
f 119/7/3 128/7/3 121/7/3
f 126/16/39 119/7/39 117/16/39
f 125/16/2 117/16/2 123/16/2
f 135/7/40 131/16/40 132/7/40
f 130/7/41 115/16/41 116/7/41
f 132/7/42 125/16/42 128/7/42
f 129/16/43 127/7/43 126/16/43
f 115/16/2 47/4/2 31/4/2
f 127/7/3 132/7/3 128/7/3
f 134/7/44 139/7/44 135/7/44
f 137/16/45 53/4/45 133/16/45
f 134/7/46 132/7/46 130/7/46
f 131/16/47 133/16/47 129/16/47
f 56/8/48 130/7/48 50/8/48
f 129/16/49 53/4/49 47/4/49
f 151/7/3 143/7/3 149/7/3
f 140/16/50 133/16/50 136/16/50
f 139/7/51 136/16/51 135/7/51
f 56/8/52 138/7/52 134/7/52
f 142/7/53 65/14/53 141/16/53
f 144/16/54 142/7/54 141/16/54
f 144/16/2 150/16/2 152/16/2
f 153/7/55 152/16/55 149/7/55
f 68/8/3 151/7/3 78/8/3
f 150/16/2 65/4/2 81/4/2
f 137/16/2 74/4/2 59/4/2
f 73/8/3 138/7/3 62/8/3
f 145/7/56 140/16/56 139/7/56
f 148/16/2 137/16/2 140/16/2
f 138/7/3 145/7/3 139/7/3
f 147/16/2 81/4/2 74/4/2
f 78/8/3 146/7/3 73/8/3
f 149/7/56 148/16/56 145/7/56
f 152/16/2 147/16/2 148/16/2
f 146/7/3 149/7/3 145/7/3
f 154/7/56 156/16/56 153/7/56
f 155/16/57 143/7/57 144/16/57
f 154/7/3 149/7/3 143/7/3
f 152/16/2 155/16/2 144/16/2
f 97/9/2 90/20/2 13/21/2
f 95/23/1 157/22/1 97/24/1
f 15/26/3 158/25/3 95/27/3
f 89/28/3 96/7/3 158/19/3
f 2/1/1 4/15/1 3/2/1
f 14/4/2 8/16/2 87/5/2
f 12/7/3 33/7/3 34/8/3
f 7/9/4 5/27/4 15/10/4
f 22/7/58 28/7/58 29/7/58
f 10/12/5 9/29/5 18/13/5
f 2/1/1 9/1/1 10/15/1
f 16/8/3 6/7/3 12/7/3
f 17/4/2 31/4/2 32/16/2
f 14/4/2 17/4/2 11/16/2
f 33/7/3 49/7/3 50/8/3
f 11/16/6 32/16/6 33/7/6
f 13/11/4 15/10/4 1/17/4
f 8/16/6 6/7/6 88/19/6
f 18/13/1 34/13/1 31/14/1
f 19/16/7 21/16/7 22/7/7
f 25/16/4 19/16/4 20/7/4
f 23/7/3 26/7/3 20/7/3
f 24/16/2 21/16/2 19/16/2
f 40/16/2 41/16/2 24/16/2
f 42/7/3 26/7/3 23/7/3
f 40/16/4 25/16/4 26/7/4
f 39/7/8 23/7/8 24/16/8
f 29/7/9 28/7/9 27/16/9
f 23/7/10 29/7/10 30/16/10
f 21/16/2 24/16/2 30/16/2
f 22/7/12 21/16/12 27/16/12
f 12/7/8 37/7/8 35/16/8
f 8/16/4 38/16/4 36/7/4
f 6/7/3 36/7/3 37/7/3
f 8/16/2 11/16/2 35/16/2
f 41/16/13 43/16/13 46/7/13
f 38/16/4 40/16/4 42/7/4
f 36/7/3 42/7/3 39/7/3
f 38/16/2 35/16/2 41/16/2
f 44/16/2 48/16/2 51/16/2
f 37/7/3 39/7/3 46/7/3
f 37/7/14 45/7/14 44/16/14
f 35/16/2 44/16/2 43/16/2
f 50/13/1 56/13/1 53/14/1
f 51/16/15 58/16/15 57/7/15
f 32/16/16 48/16/16 49/7/16
f 43/16/17 51/16/17 52/7/17
f 45/7/18 49/7/18 48/16/18
f 34/13/1 50/13/1 47/14/1
f 32/16/2 31/4/2 47/4/2
f 45/7/3 46/7/3 52/7/3
f 55/7/19 57/7/19 63/7/19
f 53/4/59 59/4/59 60/16/59
f 52/7/21 57/7/21 55/7/21
f 51/16/22 48/16/22 54/16/22
f 49/7/60 55/7/60 56/8/60
f 48/16/61 47/4/61 53/4/61
f 78/13/1 68/13/1 65/14/1
f 80/7/3 77/7/3 69/7/3
f 53/14/1 56/13/1 62/13/1
f 54/16/25 60/16/25 64/16/25
f 58/16/26 64/16/26 63/7/26
f 56/8/62 55/7/62 61/7/62
f 65/14/28 68/13/28 67/7/28
f 67/7/29 69/7/29 70/16/29
f 79/16/2 66/16/2 70/16/2
f 82/16/30 86/16/30 83/7/30
f 80/7/3 67/7/3 68/8/3
f 79/16/2 81/4/2 65/4/2
f 60/16/2 59/4/2 74/4/2
f 61/7/3 72/7/3 73/8/3
f 64/16/31 76/16/31 71/7/31
f 60/16/2 75/16/2 76/16/2
f 61/7/3 63/7/3 71/7/3
f 62/13/1 73/13/1 74/14/1
f 75/16/2 74/4/2 81/4/2
f 72/7/3 80/7/3 78/8/3
f 76/16/31 82/16/31 77/7/31
f 75/16/2 79/16/2 82/16/2
f 72/7/3 71/7/3 77/7/3
f 73/13/1 78/13/1 81/14/1
f 86/16/31 85/16/31 84/7/31
f 69/7/32 84/7/32 85/16/32
f 77/7/3 83/7/3 84/7/3
f 82/16/2 70/16/2 85/16/2
f 90/20/2 87/30/2 7/9/2
f 87/22/6 88/31/6 5/23/6
f 88/25/3 89/32/3 15/26/3
f 6/7/3 16/8/3 89/28/3
f 93/2/6 94/15/6 92/1/6
f 157/5/2 98/16/2 14/4/2
f 34/8/3 116/7/3 102/7/3
f 15/10/4 95/27/4 97/9/4
f 113/7/63 112/7/63 106/7/63
f 18/13/5 99/29/5 100/12/5
f 100/15/6 99/1/6 92/1/6
f 16/8/3 18/8/3 102/7/3
f 115/16/2 31/4/2 17/4/2
f 101/16/2 17/4/2 14/4/2
f 50/8/3 130/7/3 116/7/3
f 116/7/1 115/16/1 101/16/1
f 91/17/4 15/10/4 13/11/4
f 158/19/1 96/7/1 98/16/1
f 106/7/33 105/16/33 103/16/33
f 104/7/4 103/16/4 109/16/4
f 107/7/3 106/7/3 104/7/3
f 103/16/2 105/16/2 108/16/2
f 122/16/2 109/16/2 108/16/2
f 107/7/3 110/7/3 124/7/3
f 110/7/4 109/16/4 122/16/4
f 108/16/34 107/7/34 121/7/34
f 111/16/35 112/7/35 113/7/35
f 114/16/36 113/7/36 107/7/36
f 105/16/64 111/16/64 114/16/64
f 106/7/37 112/7/37 111/16/37
f 117/16/34 119/7/34 102/7/34
f 118/7/4 120/16/4 98/16/4
f 119/7/3 118/7/3 96/7/3
f 98/16/2 120/16/2 117/16/2
f 128/7/38 125/16/38 123/16/38
f 124/7/4 122/16/4 120/16/4
f 121/7/3 124/7/3 118/7/3
f 120/16/2 122/16/2 123/16/2
f 131/16/2 129/16/2 126/16/2
f 119/7/3 127/7/3 128/7/3
f 126/16/39 127/7/39 119/7/39
f 125/16/2 126/16/2 117/16/2
f 135/7/40 136/16/40 131/16/40
f 130/7/41 129/16/41 115/16/41
f 132/7/42 131/16/42 125/16/42
f 129/16/43 130/7/43 127/7/43
f 115/16/2 129/16/2 47/4/2
f 127/7/3 130/7/3 132/7/3
f 134/7/44 138/7/44 139/7/44
f 137/16/65 59/4/65 53/4/65
f 134/7/46 135/7/46 132/7/46
f 131/16/47 136/16/47 133/16/47
f 56/8/66 134/7/66 130/7/66
f 129/16/67 133/16/67 53/4/67
f 151/7/3 142/7/3 143/7/3
f 140/16/50 137/16/50 133/16/50
f 139/7/51 140/16/51 136/16/51
f 56/8/68 62/8/68 138/7/68
f 142/7/53 68/13/53 65/14/53
f 144/16/54 143/7/54 142/7/54
f 144/16/2 141/16/2 150/16/2
f 153/7/55 156/16/55 152/16/55
f 68/8/3 142/7/3 151/7/3
f 150/16/2 141/16/2 65/4/2
f 137/16/2 147/16/2 74/4/2
f 73/8/3 146/7/3 138/7/3
f 145/7/56 148/16/56 140/16/56
f 148/16/2 147/16/2 137/16/2
f 138/7/3 146/7/3 145/7/3
f 147/16/2 150/16/2 81/4/2
f 78/8/3 151/7/3 146/7/3
f 149/7/56 152/16/56 148/16/56
f 152/16/2 150/16/2 147/16/2
f 146/7/3 151/7/3 149/7/3
f 154/7/56 155/16/56 156/16/56
f 155/16/57 154/7/57 143/7/57
f 154/7/3 153/7/3 149/7/3
f 152/16/2 156/16/2 155/16/2
f 97/9/2 157/30/2 90/20/2
f 95/23/1 158/31/1 157/22/1
f 15/26/3 89/32/3 158/25/3
f 89/28/3 16/8/3 96/7/3
